<svg width="43" height="43" viewBox="0 0 43 43" fill="none" xmlns="http://www.w3.org/2000/svg">
<path opacity="0.6" d="M21.4676 21.5913C21.4688 21.5709 21.47 21.5505 21.47 21.5288C21.4496 21.53 21.4291 21.5312 21.4087 21.5324C21.4195 21.5204 21.4327 21.512 21.4448 21.5C21.4327 21.4892 21.4195 21.4784 21.4087 21.4676C21.4291 21.4676 21.4496 21.47 21.47 21.47C21.47 21.4496 21.4688 21.4291 21.4676 21.4087C21.4784 21.4195 21.4892 21.4327 21.5 21.4435C21.5108 21.4327 21.5216 21.4195 21.5324 21.4087C21.5312 21.4291 21.53 21.4496 21.53 21.47C21.5504 21.47 21.5709 21.4676 21.5925 21.4676C21.5805 21.4784 21.5685 21.4892 21.5565 21.5C21.5685 21.512 21.5805 21.5204 21.5925 21.5324C21.5709 21.5312 21.5504 21.53 21.53 21.5288C21.53 21.5505 21.5312 21.5709 21.5324 21.5913C21.5216 21.5793 21.5108 21.5685 21.5 21.5565C21.4892 21.5685 21.4784 21.5793 21.4676 21.5913ZM24.0717 22.6796C27.3978 23.3258 33.2212 22.4465 43 21.5C33.2212 20.5535 27.3978 19.673 24.0717 20.3192C26.0705 18.682 28.6062 15.2995 32.8332 10.1656C27.7005 14.3938 24.318 16.9295 22.6808 18.9283C23.327 15.6034 22.4465 9.78004 21.5 -3.8147e-06C20.5535 9.78004 19.673 15.6034 20.3192 18.9283C18.6832 16.9295 15.2995 14.3938 10.1668 10.1656C14.3926 15.2995 16.9295 18.682 18.9283 20.3192C15.6022 19.673 9.78004 20.5535 0 21.5C9.78004 22.4465 15.6022 23.3258 18.9283 22.6796C16.9295 24.318 14.3926 27.7005 10.1668 32.8332C15.2995 28.6074 18.6832 26.0705 20.3192 24.0717C19.673 27.3978 20.5535 33.2212 21.5 43C22.4465 33.2212 23.327 27.3978 22.6808 24.0717C24.318 26.0705 27.7005 28.6074 32.8332 32.8332C28.6062 27.7005 26.0705 24.318 24.0717 22.6796Z" fill="white"/>
</svg>
