<svg width="81" height="81" viewBox="0 0 81 81" fill="none" xmlns="http://www.w3.org/2000/svg">
<path d="M40.4389 40.672C40.4412 40.6335 40.4434 40.595 40.4434 40.5543C40.405 40.5566 40.3665 40.5588 40.328 40.5611C40.3484 40.5385 40.3733 40.5226 40.3959 40.5C40.3733 40.4797 40.3484 40.4593 40.328 40.4389C40.3665 40.4389 40.405 40.4434 40.4434 40.4434C40.4434 40.405 40.4412 40.3665 40.4389 40.328C40.4593 40.3484 40.4796 40.3733 40.5 40.3936C40.5204 40.3733 40.5407 40.3484 40.5611 40.328C40.5588 40.3665 40.5566 40.405 40.5566 40.4434C40.595 40.4434 40.6335 40.4389 40.6742 40.4389C40.6516 40.4593 40.629 40.4797 40.6063 40.5C40.629 40.5226 40.6516 40.5385 40.6742 40.5611C40.6335 40.5588 40.595 40.5566 40.5566 40.5543C40.5566 40.595 40.5588 40.6335 40.5611 40.672C40.5407 40.6493 40.5204 40.629 40.5 40.6064C40.4796 40.629 40.4593 40.6493 40.4389 40.672ZM45.3444 42.722C51.6099 43.9393 62.5794 42.283 81 40.5C62.5794 38.717 51.6099 37.0584 45.3444 38.2758C49.1096 35.1917 53.8861 28.82 61.8485 19.1492C52.18 27.1139 45.8083 31.8904 42.7242 35.6556C43.9416 29.3924 42.283 18.4229 40.5 0C38.717 18.4229 37.0585 29.3924 38.2758 35.6556C35.194 31.8904 28.82 27.1139 19.1515 19.1492C27.1116 28.82 31.8904 35.1917 35.6556 38.2758C29.3902 37.0584 18.4229 38.717 0 40.5C18.4229 42.283 29.3902 43.9393 35.6556 42.722C31.8904 45.8083 27.1116 52.18 19.1515 61.8485C28.82 53.8884 35.194 49.1096 38.2758 45.3444C37.0585 51.6098 38.717 62.5794 40.5 81C42.283 62.5794 43.9416 51.6098 42.7242 45.3444C45.8083 49.1096 52.18 53.8884 61.8485 61.8485C53.8861 52.18 49.1096 45.8083 45.3444 42.722Z" fill="#D36F4F"/>
</svg>
